# xmcd CD database file
#
# Track frame offsets:
#	150
#	16020
#	29275
#	46717
#	68822
#	85395
#	101417
#	121477
#	137390
#	151827
#	170235
#	190777
#
# Disc length: 2613 seconds
#
# Revision: 1
# Processed by: cddbd v1.5.2PL0 Copyright (c) Steve Scherf et al.
# Submitted via: CDex 1.51
#
DISCID=8e0a330c
DTITLE=Shannon Lawson - Chase The Sun
DYEAR=2002
DGENRE=Country
TTITLE0=This Old Heart
TTITLE1=Chase The Sun
TTITLE2=Dream Your Way To Me
TTITLE3=Goodbye On A Bad Day
TTITLE4=Bad Bad Bad
TTITLE5=Superstar
TTITLE6=Where Would I Go
TTITLE7=Who's Your Daddy
TTITLE8=Slow Down Sunrise
TTITLE9=Are You Happy Now
TTITLE10=Lets Get It On
TTITLE11=They Hung Him On The Cross (Hidden)
EXTD=YEAR: 2002
EXTT0=
EXTT1=
EXTT2=
EXTT3=
EXTT4=
EXTT5=
EXTT6=
EXTT7=
EXTT8=
EXTT9=
EXTT10=
EXTT11=
PLAYORDER=
